{
    "asset" : {
        "generator" : "Khronos glTF Blender I/O v1.8.19",
        "version" : "2.0"
    },
    "scene" : 0,
    "scenes" : [
        {
            "name" : "Scene",
            "nodes" : [
                0,
                1,
                2
            ]
        }
    ],
    "nodes" : [
        {
            "mesh" : 0,
            "name" : "cover",
            "rotation" : [
                0,
                0,
                0.005953700747340918,
                0.9999822974205017
            ],
            "scale" : [
                73,
                10,
                93
            ],
            "translation" : [
                1.0821075439453125,
                45,
                0
            ]
        },
        {
            "mesh" : 1,
            "name" : "cover.001",
            "scale" : [
                73,
                10,
                93
            ],
            "translation" : [
                0,
                40,
                0
            ]
        },
        {
            "mesh" : 2,
            "name" : "cover.003",
            "rotation" : [
                0,
                0,
                0.005953700747340918,
                0.9999822974205017
            ],
            "scale" : [
                73,
                10,
                93
            ],
            "translation" : [
                1.0821075439453125,
                45,
                0
            ]
        }
    ],
    "materials" : [
        {
            "doubleSided" : true,
            "name" : "Material",
            "pbrMetallicRoughness" : {
                "baseColorFactor" : [
                    0.014242795296013355,
                    0.014242795296013355,
                    0.014242795296013355,
                    1
                ],
                "metallicFactor" : 0,
                "roughnessFactor" : 0.5
            }
        },
        {
            "doubleSided" : true,
            "name" : "Material.001",
            "pbrMetallicRoughness" : {
                "baseColorFactor" : [
                    0,
                    0,
                    0,
                    1
                ],
                "metallicFactor" : 0,
                "roughnessFactor" : 0.5
            }
        },
        {
            "doubleSided" : true,
            "name" : "Material.002",
            "pbrMetallicRoughness" : {
                "baseColorFactor" : [
                    0,
                    0,
                    0,
                    1
                ],
                "metallicFactor" : 0,
                "roughnessFactor" : 0.5
            }
        }
    ],
    "meshes" : [
        {
            "name" : "Cube.002",
            "primitives" : [
                {
                    "attributes" : {
                        "POSITION" : 0,
                        "NORMAL" : 1,
                        "TEXCOORD_0" : 2
                    },
                    "indices" : 3,
                    "material" : 0
                },
                {
                    "attributes" : {
                        "POSITION" : 4,
                        "NORMAL" : 5,
                        "TEXCOORD_0" : 6
                    },
                    "indices" : 7,
                    "material" : 1
                },
                {
                    "attributes" : {
                        "POSITION" : 8,
                        "NORMAL" : 9,
                        "TEXCOORD_0" : 10
                    },
                    "indices" : 11,
                    "material" : 2
                }
            ]
        },
        {
            "name" : "Cube.018",
            "primitives" : [
                {
                    "attributes" : {
                        "POSITION" : 12,
                        "NORMAL" : 13,
                        "TEXCOORD_0" : 14
                    },
                    "indices" : 3,
                    "material" : 0
                },
                {
                    "attributes" : {
                        "POSITION" : 15,
                        "NORMAL" : 16,
                        "TEXCOORD_0" : 17
                    },
                    "indices" : 7,
                    "material" : 1
                },
                {
                    "attributes" : {
                        "POSITION" : 18,
                        "NORMAL" : 19,
                        "TEXCOORD_0" : 20
                    },
                    "indices" : 11,
                    "material" : 2
                }
            ]
        },
        {
            "name" : "Cube.020",
            "primitives" : [
                {
                    "attributes" : {
                        "POSITION" : 21,
                        "NORMAL" : 22,
                        "TEXCOORD_0" : 23
                    },
                    "indices" : 3,
                    "material" : 0
                },
                {
                    "attributes" : {
                        "POSITION" : 24,
                        "NORMAL" : 25,
                        "TEXCOORD_0" : 26
                    },
                    "indices" : 7,
                    "material" : 1
                },
                {
                    "attributes" : {
                        "POSITION" : 27,
                        "NORMAL" : 28,
                        "TEXCOORD_0" : 29
                    },
                    "indices" : 11,
                    "material" : 2
                }
            ]
        }
    ],
    "accessors" : [
        {
            "bufferView" : 0,
            "componentType" : 5126,
            "count" : 21818,
            "max" : [
                0.9440786838531494,
                1,
                0.9710760116577148
            ],
            "min" : [
                -0.9737261533737183,
                -8.999988555908203,
                -0.974890410900116
            ],
            "type" : "VEC3"
        },
        {
            "bufferView" : 1,
            "componentType" : 5126,
            "count" : 21818,
            "type" : "VEC3"
        },
        {
            "bufferView" : 2,
            "componentType" : 5126,
            "count" : 21818,
            "type" : "VEC2"
        },
        {
            "bufferView" : 3,
            "componentType" : 5123,
            "count" : 42840,
            "type" : "SCALAR"
        },
        {
            "bufferView" : 4,
            "componentType" : 5126,
            "count" : 3596,
            "max" : [
                0.9578841924667358,
                -0.9999997615814209,
                0.8602150678634644
            ],
            "min" : [
                -0.20660415291786194,
                -8.300000190734863,
                0.10752686858177185
            ],
            "type" : "VEC3"
        },
        {
            "bufferView" : 5,
            "componentType" : 5126,
            "count" : 3596,
            "type" : "VEC3"
        },
        {
            "bufferView" : 6,
            "componentType" : 5126,
            "count" : 3596,
            "type" : "VEC2"
        },
        {
            "bufferView" : 7,
            "componentType" : 5123,
            "count" : 6852,
            "type" : "SCALAR"
        },
        {
            "bufferView" : 8,
            "componentType" : 5126,
            "count" : 740,
            "max" : [
                0.9364452362060547,
                1.1085662841796875,
                0.9708658456802368
            ],
            "min" : [
                -0.9699802994728088,
                0.8812656402587891,
                -0.973025918006897
            ],
            "type" : "VEC3"
        },
        {
            "bufferView" : 9,
            "componentType" : 5126,
            "count" : 740,
            "type" : "VEC3"
        },
        {
            "bufferView" : 10,
            "componentType" : 5126,
            "count" : 740,
            "type" : "VEC2"
        },
        {
            "bufferView" : 11,
            "componentType" : 5123,
            "count" : 1392,
            "type" : "SCALAR"
        },
        {
            "bufferView" : 12,
            "componentType" : 5126,
            "count" : 21818,
            "max" : [
                0.9440786838531494,
                1,
                0.9710760116577148
            ],
            "min" : [
                -0.9737261533737183,
                -8.999988555908203,
                -0.974890410900116
            ],
            "type" : "VEC3"
        },
        {
            "bufferView" : 13,
            "componentType" : 5126,
            "count" : 21818,
            "type" : "VEC3"
        },
        {
            "bufferView" : 14,
            "componentType" : 5126,
            "count" : 21818,
            "type" : "VEC2"
        },
        {
            "bufferView" : 15,
            "componentType" : 5126,
            "count" : 3596,
            "max" : [
                0.9578841924667358,
                -0.9999997615814209,
                0.8602150678634644
            ],
            "min" : [
                -0.20660415291786194,
                -8.300000190734863,
                0.10752686858177185
            ],
            "type" : "VEC3"
        },
        {
            "bufferView" : 16,
            "componentType" : 5126,
            "count" : 3596,
            "type" : "VEC3"
        },
        {
            "bufferView" : 17,
            "componentType" : 5126,
            "count" : 3596,
            "type" : "VEC2"
        },
        {
            "bufferView" : 18,
            "componentType" : 5126,
            "count" : 740,
            "max" : [
                0.9364452362060547,
                1.1085662841796875,
                0.9708658456802368
            ],
            "min" : [
                -0.9699802994728088,
                0.8812656402587891,
                -0.973025918006897
            ],
            "type" : "VEC3"
        },
        {
            "bufferView" : 19,
            "componentType" : 5126,
            "count" : 740,
            "type" : "VEC3"
        },
        {
            "bufferView" : 20,
            "componentType" : 5126,
            "count" : 740,
            "type" : "VEC2"
        },
        {
            "bufferView" : 21,
            "componentType" : 5126,
            "count" : 21818,
            "max" : [
                0.9440786838531494,
                1,
                0.9710760116577148
            ],
            "min" : [
                -0.9737261533737183,
                -8.999988555908203,
                -0.974890410900116
            ],
            "type" : "VEC3"
        },
        {
            "bufferView" : 22,
            "componentType" : 5126,
            "count" : 21818,
            "type" : "VEC3"
        },
        {
            "bufferView" : 23,
            "componentType" : 5126,
            "count" : 21818,
            "type" : "VEC2"
        },
        {
            "bufferView" : 24,
            "componentType" : 5126,
            "count" : 3596,
            "max" : [
                0.9578841924667358,
                -0.9999997615814209,
                0.8602150678634644
            ],
            "min" : [
                -0.20660415291786194,
                -8.300000190734863,
                0.10752686858177185
            ],
            "type" : "VEC3"
        },
        {
            "bufferView" : 25,
            "componentType" : 5126,
            "count" : 3596,
            "type" : "VEC3"
        },
        {
            "bufferView" : 26,
            "componentType" : 5126,
            "count" : 3596,
            "type" : "VEC2"
        },
        {
            "bufferView" : 27,
            "componentType" : 5126,
            "count" : 740,
            "max" : [
                0.9364452362060547,
                1.1085662841796875,
                0.9708658456802368
            ],
            "min" : [
                -0.9699802994728088,
                0.8812656402587891,
                -0.973025918006897
            ],
            "type" : "VEC3"
        },
        {
            "bufferView" : 28,
            "componentType" : 5126,
            "count" : 740,
            "type" : "VEC3"
        },
        {
            "bufferView" : 29,
            "componentType" : 5126,
            "count" : 740,
            "type" : "VEC2"
        }
    ],
    "bufferViews" : [
        {
            "buffer" : 0,
            "byteLength" : 261816,
            "byteOffset" : 0
        },
        {
            "buffer" : 0,
            "byteLength" : 261816,
            "byteOffset" : 261816
        },
        {
            "buffer" : 0,
            "byteLength" : 174544,
            "byteOffset" : 523632
        },
        {
            "buffer" : 0,
            "byteLength" : 85680,
            "byteOffset" : 698176
        },
        {
            "buffer" : 0,
            "byteLength" : 43152,
            "byteOffset" : 783856
        },
        {
            "buffer" : 0,
            "byteLength" : 43152,
            "byteOffset" : 827008
        },
        {
            "buffer" : 0,
            "byteLength" : 28768,
            "byteOffset" : 870160
        },
        {
            "buffer" : 0,
            "byteLength" : 13704,
            "byteOffset" : 898928
        },
        {
            "buffer" : 0,
            "byteLength" : 8880,
            "byteOffset" : 912632
        },
        {
            "buffer" : 0,
            "byteLength" : 8880,
            "byteOffset" : 921512
        },
        {
            "buffer" : 0,
            "byteLength" : 5920,
            "byteOffset" : 930392
        },
        {
            "buffer" : 0,
            "byteLength" : 2784,
            "byteOffset" : 936312
        },
        {
            "buffer" : 0,
            "byteLength" : 261816,
            "byteOffset" : 939096
        },
        {
            "buffer" : 0,
            "byteLength" : 261816,
            "byteOffset" : 1200912
        },
        {
            "buffer" : 0,
            "byteLength" : 174544,
            "byteOffset" : 1462728
        },
        {
            "buffer" : 0,
            "byteLength" : 43152,
            "byteOffset" : 1637272
        },
        {
            "buffer" : 0,
            "byteLength" : 43152,
            "byteOffset" : 1680424
        },
        {
            "buffer" : 0,
            "byteLength" : 28768,
            "byteOffset" : 1723576
        },
        {
            "buffer" : 0,
            "byteLength" : 8880,
            "byteOffset" : 1752344
        },
        {
            "buffer" : 0,
            "byteLength" : 8880,
            "byteOffset" : 1761224
        },
        {
            "buffer" : 0,
            "byteLength" : 5920,
            "byteOffset" : 1770104
        },
        {
            "buffer" : 0,
            "byteLength" : 261816,
            "byteOffset" : 1776024
        },
        {
            "buffer" : 0,
            "byteLength" : 261816,
            "byteOffset" : 2037840
        },
        {
            "buffer" : 0,
            "byteLength" : 174544,
            "byteOffset" : 2299656
        },
        {
            "buffer" : 0,
            "byteLength" : 43152,
            "byteOffset" : 2474200
        },
        {
            "buffer" : 0,
            "byteLength" : 43152,
            "byteOffset" : 2517352
        },
        {
            "buffer" : 0,
            "byteLength" : 28768,
            "byteOffset" : 2560504
        },
        {
            "buffer" : 0,
            "byteLength" : 8880,
            "byteOffset" : 2589272
        },
        {
            "buffer" : 0,
            "byteLength" : 8880,
            "byteOffset" : 2598152
        },
        {
            "buffer" : 0,
            "byteLength" : 5920,
            "byteOffset" : 2607032
        }
    ],
    "buffers" : [
        {
            "byteLength" : 2612952,
            "uri" : "data:application/octet-stream;base64,"
        }
    ]
}
